<svg width="260" height="180" xmlns="http://www.w3.org/2000/svg">
    <g>
        <!-- Grid horizontal lines -->
        <line y2="10" x2="250" y1="10" x1="10" stroke-width="1.5" stroke="#ddd" />
        <line y2="50" x2="250" y1="50" x1="10" stroke-width="1.5" stroke="#ddd" />
        <line y2="90" x2="250" y1="90" x1="10" stroke-width="1.5" stroke="#ddd" />
        <line y2="130" x2="250" y1="130" x1="10" stroke-width="1.5" stroke="#ddd" />
        <line y2="170" x2="250" y1="170" x1="10" stroke-width="1.5" stroke="#ddd" />
        <line y2="210" x2="10" y1="210" x1="10" stroke-width="1.5" stroke="#ddd" />
        <!-- Grid vetical lines -->
        <line y2="170" x2="10" y1="10" x1="10" stroke-width="1.5" stroke="#ddd" />
        <line y2="170" x2="50" y1="10" x1="50" stroke-width="1.5" stroke="#ddd" />
        <line y2="170" x2="90" y1="10" x1="90" stroke-width="1.5" stroke="#ddd" />
        <line y2="170" x2="130" y1="10" x1="130" stroke-width="1.5" stroke="#ddd" />
        <line y2="170" x2="170" y1="10" x1="170" stroke-width="1.5" stroke="#ddd" />
        <line y2="170" x2="210" y1="10" x1="210" stroke-width="1.5" stroke="#ddd" />
        <line y2="170" x2="250" y1="10" x1="250" stroke-width="1.5" stroke="#ddd" />
        <!-- Cell content -->
        <!-- on line 1: ><><>< -->
        <line x1="10" y1="50" x2="50" y2="10" stroke-width="1.5" stroke="#000" />
        <line x1="50" y1="10" x2="90" y2="50" stroke-width="1.5" stroke="#000" />
        <line x1="90" y1="50" x2="130" y2="10" stroke-width="1.5" stroke="#000" />
        <line x1="130" y1="10" x2="170" y2="50" stroke-width="1.5" stroke="#000" />
        <line x1="170" y1="50" x2="210" y2="10" stroke-width="1.5" stroke="#000" />
        <line x1="210" y1="10" x2="250" y2="50" stroke-width="1.5" stroke="#000" />
        <!-- on line 2: <><<>> -->
        <line x1="10" y1="50" x2="50" y2="90" stroke-width="1.5" stroke="#000" />
        <line x1="50" y1="90" x2="90" y2="50" stroke-width="1.5" stroke="#000" />
        <line x1="90" y1="50" x2="130" y2="90" stroke-width="1.5" stroke="#000" />
        <line x1="130" y1="50" x2="170" y2="90" stroke-width="1.5" stroke="#000" />
        <line x1="170" y1="90" x2="210" y2="50" stroke-width="1.5" stroke="#000" />
        <line x1="210" y1="90" x2="250" y2="50" stroke-width="1.5" stroke="#000" />
        <!-- on line 3: <<>>>< -->
        <line x1="10" y1="90" x2="50" y2="130" stroke-width="1.5" stroke="#000" />
        <line x1="50" y1="90" x2="90" y2="130" stroke-width="1.5" stroke="#000" />
        <line x1="90" y1="130" x2="130" y2="90" stroke-width="1.5" stroke="#000" />
        <line x1="130" y1="130" x2="170" y2="90" stroke-width="1.5" stroke="#000" />
        <line x1="170" y1="130" x2="210" y2="90" stroke-width="1.5" stroke="#000" />
        <line x1="210" y1="90" x2="250" y2="130" stroke-width="1.5" stroke="#000" />
        <!-- on line 4: ><<>>< -->
        <line x1="10" y1="170" x2="50" y2="130" stroke-width="1.5" stroke="#000" />
        <line x1="50" y1="130" x2="90" y2="170" stroke-width="1.5" stroke="#000" />
        <line x1="90" y1="130" x2="130" y2="170" stroke-width="1.5" stroke="#000" />
        <line x1="130" y1="170" x2="170" y2="130" stroke-width="1.5" stroke="#000" />
        <line x1="170" y1="170" x2="210" y2="130" stroke-width="1.5" stroke="#000" />
        <line x1="210" y1="130" x2="250" y2="170" stroke-width="1.5" stroke="#000" />
    </g>
</svg>