<svg width="200" height="150" xmlns="http://www.w3.org/2000/svg" style="vertical-align:middle;">
    <g>
        <line stroke="#f00" x1="0" y1="100" x2="50" y2="50" stroke-width="1.5" />
        <line x1="35" y1="55" x2="45" y2="55" stroke-width="1.5" stroke="#080" />
        <line x1="45" y1="65" x2="45" y2="55" stroke-width="1.5" stroke="#080" />
        <line stroke="#000" x1="50" y1="50" x2="100" y2="0" stroke-width="1.5" />
        <line x1="85" y1="5" x2="95" y2="5" stroke-width="1.5" stroke="#080" />
        <line x1="95" y1="15" x2="95" y2="5" stroke-width="1.5" stroke="#080" />
        <line stroke="#000" x1="100" y1="0" x2="150" y2="50" stroke-width="1.5" />
        <line x1="145" y1="35" x2="145" y2="45" stroke-width="1.5" stroke="#080" />
        <line x1="135" y1="45" x2="145" y2="45" stroke-width="1.5" stroke="#080" />
        <line stroke="#000" x1="150" y1="50" x2="200" y2="100" stroke-width="1.5" />
        <line x1="195" y1="85" x2="195" y2="95" stroke-width="1.5" stroke="#080" />
        <line x1="185" y1="95" x2="195" y2="95" stroke-width="1.5" stroke="#080" />
        <line stroke="#000" x1="200" y1="100" x2="150" y2="150" stroke-width="1.5" />
        <line x1="155" y1="135" x2="155" y2="145" stroke-width="1.5" stroke="#080" />
        <line x1="165" y1="145" x2="155" y2="145" stroke-width="1.5" stroke="#080" />
        <line stroke="#000" x1="150" y1="150" x2="100" y2="100" stroke-width="1.5" />
        <line x1="115" y1="105" x2="105" y2="105" stroke-width="1.5" stroke="#080" />
        <line x1="105" y1="115" x2="105" y2="105" stroke-width="1.5" stroke="#080" />
        <line stroke="#00f" x1="100" y1="100" x2="150" y2="50" stroke-width="1.5" />
        <line x1="145" y1="65" x2="145" y2="55" stroke-width="1.5" stroke="#080" />
        <line x1="135" y1="55" x2="145" y2="55" stroke-width="1.5" stroke="#080" />
        <text xml:space="preserve" text-anchor="start" font-family="Helvetica, Arial, sans-serif" font-size="24" x="10" x0="25-15" y="70" y0="75-5" stroke-width="0" fill="#f00">a</text>
        <text xml:space="preserve" text-anchor="start" font-family="Helvetica, Arial, sans-serif" font-size="24" x="110" x0="125-15" y="70" y0="75-5" stroke-width="0" fill="#00f">b</text>
    </g>
</svg>